<svg width="50" height="50" viewBox="0 0 50 50" fill="none" xmlns="http://www.w3.org/2000/svg">
<rect x="0.5" y="0.5" width="48.8436" height="49" rx="5.5" stroke="black" stroke-linejoin="round"/>
<path d="M22.6792 40C23.9178 40 24.9218 38.9926 24.9218 37.75C24.9218 36.5074 23.9178 35.5 22.6792 35.5C21.4406 35.5 20.4365 36.5074 20.4365 37.75C20.4365 38.9926 21.4406 40 22.6792 40Z" fill="#232323"/>
<path d="M33.145 40C34.3835 40 35.3876 38.9926 35.3876 37.75C35.3876 36.5074 34.3835 35.5 33.145 35.5C31.9064 35.5 30.9023 36.5074 30.9023 37.75C30.9023 38.9926 31.9064 40 33.145 40Z" fill="#232323"/>
<path d="M6.98047 13H13.7832L19.3338 30.6322H35.9483L42.8632 13" stroke="#232323" stroke-width="1.2" stroke-linecap="round" stroke-linejoin="round"/>
</svg>
